<svg xmlns="http://www.w3.org/2000/svg" viewBox="0 0 100 100">
  <defs>
    <linearGradient id="bloodGradient" x1="0%" y1="0%" x2="0%" y2="100%">
      <stop offset="0%" style="stop-color:#ef4444;stop-opacity:1" />
      <stop offset="100%" style="stop-color:#dc2626;stop-opacity:1" />
    </linearGradient>
  </defs>
  
  <!-- Background circle -->
  <circle cx="50" cy="50" r="48" fill="url(#bloodGradient)" />
  
  <!-- Blood drop shape -->
  <path d="M 50 25 
           C 50 25, 35 40, 35 52
           C 35 60, 41 67, 50 67
           C 59 67, 65 60, 65 52
           C 65 40, 50 25, 50 25 Z" 
        fill="white" 
        opacity="0.95"/>
  
  <!-- Heart inside drop -->
  <path d="M 50 45
           C 48 43, 45 43, 43 45
           C 41 47, 41 49, 43 51
           L 50 58
           L 57 51
           C 59 49, 59 47, 57 45
           C 55 43, 52 43, 50 45 Z"
        fill="#ef4444"
        opacity="0.9"/>
</svg>
